HIERARCHY
ROOT Hips
{
	OFFSET 0.000000 83.208069 2.550922
	CHANNELS 6 Xposition Yposition Zposition Xrotation Yrotation Zrotation
	JOINT Pelvis
	{
		OFFSET 0.000000 0.000000 0.000000
		CHANNELS 3 Xrotation Yrotation Zrotation
		JOINT LeftUpLeg
		{
			OFFSET 8.479694 -4.795517 -0.379053
			CHANNELS 3 Xrotation Yrotation Zrotation
			JOINT LeftLeg
			{
				OFFSET 0.485052 -32.551468 0.112863
				CHANNELS 3 Xrotation Yrotation Zrotation
				JOINT LeftFoot
				{
					OFFSET 0.438033 -32.635670 -3.012641
					CHANNELS 3 Xrotation Yrotation Zrotation
					JOINT LeftToeBase
					{
						OFFSET 0.970169 -13.225353 11.864223
						CHANNELS 3 Xrotation Yrotation Zrotation
						End Site
						{
							OFFSET 0.000000 12.319231 0.000000
						}
					}
					JOINT LFootTongue
					{
						OFFSET 1.142399 -1.059789 6.665162
						CHANNELS 3 Xrotation Yrotation Zrotation
						End Site
						{
							OFFSET 0.000000 12.319230 0.000000
						}
					}
				}
				JOINT LeftPantLeg
				{
					OFFSET 1.152549 -16.519323 -2.284731
					CHANNELS 3 Xrotation Yrotation Zrotation
					End Site
					{
						OFFSET 0.000000 24.746851 0.000000
					}
				}
			}
		}
		JOINT RightUpLeg
		{
			OFFSET -8.479694 -4.795517 -0.379053
			CHANNELS 3 Xrotation Yrotation Zrotation
			JOINT RightLeg
			{
				OFFSET -0.484100 -32.551483 0.112903
				CHANNELS 3 Xrotation Yrotation Zrotation
				JOINT RightFoot
				{
					OFFSET -0.438985 -32.635651 -3.012681
					CHANNELS 3 Xrotation Yrotation Zrotation
					JOINT RightToeBase
					{
						OFFSET -0.970169 -13.225354 11.864223
						CHANNELS 3 Xrotation Yrotation Zrotation
						End Site
						{
							OFFSET 0.000000 12.319217 0.000000
						}
					}
					JOINT RFootTongue
					{
						OFFSET -1.142220 -1.059793 6.665161
						CHANNELS 3 Xrotation Yrotation Zrotation
						End Site
						{
							OFFSET 0.000000 12.319217 0.000000
						}
					}
				}
				JOINT RightPantLeg
				{
					OFFSET -1.153501 -16.519308 -2.284772
					CHANNELS 3 Xrotation Yrotation Zrotation
					End Site
					{
						OFFSET 0.000000 24.746878 0.000000
					}
				}
			}
		}
	}
	JOINT Spine
	{
		OFFSET 0.000000 7.722015 1.166203
		CHANNELS 3 Xrotation Yrotation Zrotation
		JOINT Spine1
		{
			OFFSET 0.000000 12.024086 0.248766
			CHANNELS 3 Xrotation Yrotation Zrotation
			JOINT Spine2
			{
				OFFSET -0.000000 11.503036 -0.491240
				CHANNELS 3 Xrotation Yrotation Zrotation
				JOINT Neck
				{
					OFFSET 0.000000 18.430687 -3.123054
					CHANNELS 3 Xrotation Yrotation Zrotation
					JOINT Head
					{
						OFFSET -0.000000 9.051071 1.034021
						CHANNELS 3 Xrotation Yrotation Zrotation
						JOINT HairB
						{
							OFFSET 0.208397 24.786072 24.822304
							CHANNELS 3 Xrotation Yrotation Zrotation
							End Site
							{
								OFFSET 0.000000 32.263794 0.000000
							}
						}
						JOINT HairA
						{
							OFFSET -7.081073 24.428299 23.196634
							CHANNELS 3 Xrotation Yrotation Zrotation
							End Site
							{
								OFFSET 0.000000 32.263779 0.000000
							}
						}
						JOINT Hat
						{
							OFFSET 16.728800 15.048309 -15.439650
							CHANNELS 3 Xrotation Yrotation Zrotation
							End Site
							{
								OFFSET 0.000000 32.263794 0.000000
							}
						}
					}
				}
				JOINT LeftShoulder
				{
					OFFSET 6.197824 13.665230 -4.064723
					CHANNELS 3 Xrotation Yrotation Zrotation
					JOINT LeftArm
					{
						OFFSET 7.778132 -0.187073 -1.709282
						CHANNELS 3 Xrotation Yrotation Zrotation
						JOINT LeftForeArm
						{
							OFFSET 21.954697 0.000000 -2.041093
							CHANNELS 3 Xrotation Yrotation Zrotation
							JOINT LeftHand
							{
								OFFSET 22.992908 0.000000 -0.870901
								CHANNELS 3 Xrotation Yrotation Zrotation
								JOINT LeftHandThumb1
								{
									OFFSET 3.593975 -1.460358 3.365570
									CHANNELS 3 Xrotation Yrotation Zrotation
									JOINT LeftHandThumb2
									{
										OFFSET 3.016712 -1.561966 2.119022
										CHANNELS 3 Xrotation Yrotation Zrotation
										JOINT LeftHandThumb3
										{
											OFFSET 3.029564 -2.099800 1.415844
											CHANNELS 3 Xrotation Yrotation Zrotation
											End Site
											{
												OFFSET 0.000000 3.948677 0.000000
											}
										}
									}
								}
								JOINT LeftHandIndex1
								{
									OFFSET 11.372505 0.065018 3.699154
									CHANNELS 3 Xrotation Yrotation Zrotation
									JOINT LeftHandIndex2
									{
										OFFSET 3.229195 -0.574921 -0.143498
										CHANNELS 3 Xrotation Yrotation Zrotation
										JOINT LeftHandIndex3
										{
											OFFSET 3.111160 -1.135635 -0.280794
											CHANNELS 3 Xrotation Yrotation Zrotation
											End Site
											{
												OFFSET 0.000000 3.323822 0.000000
											}
										}
									}
								}
								JOINT LeftHandMiddle1
								{
									OFFSET 11.327377 0.426697 -0.098180
									CHANNELS 3 Xrotation Yrotation Zrotation
									JOINT LeftHandMiddle2
									{
										OFFSET 3.290932 -0.875465 -0.186927
										CHANNELS 3 Xrotation Yrotation Zrotation
										JOINT LeftHandMiddle3
										{
											OFFSET 3.094551 -1.150223 -0.267588
											CHANNELS 3 Xrotation Yrotation Zrotation
											End Site
											{
												OFFSET 0.000000 3.312233 0.000000
											}
										}
									}
								}
								JOINT LeftHandRing1
								{
									OFFSET 11.497078 -0.008904 -3.070051
									CHANNELS 3 Xrotation Yrotation Zrotation
									JOINT LeftHandRing2
									{
										OFFSET 2.881340 -0.992859 -0.186928
										CHANNELS 3 Xrotation Yrotation Zrotation
										JOINT LeftHandRing3
										{
											OFFSET 3.022743 -1.281013 -0.290960
											CHANNELS 3 Xrotation Yrotation Zrotation
											End Site
											{
												OFFSET 0.000000 3.295853 0.000000
											}
										}
									}
								}
								JOINT LeftHandPinky1
								{
									OFFSET 10.529488 -1.373093 -5.625615
									CHANNELS 3 Xrotation Yrotation Zrotation
									JOINT LeftHandPinky2
									{
										OFFSET 2.679024 -0.950073 -0.330554
										CHANNELS 3 Xrotation Yrotation Zrotation
										JOINT LeftHandPinky3
										{
											OFFSET 2.724571 -0.843613 -0.252685
											CHANNELS 3 Xrotation Yrotation Zrotation
											End Site
											{
												OFFSET 0.000000 2.863358 0.000000
											}
										}
									}
								}
							}
							JOINT LSleeve
							{
								OFFSET 6.633202 -0.344879 -1.263650
								CHANNELS 3 Xrotation Yrotation Zrotation
								End Site
								{
									OFFSET 0.000000 14.885345 0.000000
								}
							}
						}
					}
				}
				JOINT RightShoulder
				{
					OFFSET -6.197824 13.665230 -4.064723
					CHANNELS 3 Xrotation Yrotation Zrotation
					JOINT RightArm
					{
						OFFSET -7.778132 -0.187073 -1.709282
						CHANNELS 3 Xrotation Yrotation Zrotation
						JOINT RightForeArm
						{
							OFFSET -21.954697 0.000000 -2.041093
							CHANNELS 3 Xrotation Yrotation Zrotation
							JOINT RightHand
							{
								OFFSET -22.992908 0.000000 -0.870901
								CHANNELS 3 Xrotation Yrotation Zrotation
								JOINT RightHandThumb1
								{
									OFFSET -3.593975 -1.460358 3.365570
									CHANNELS 3 Xrotation Yrotation Zrotation
									JOINT RightHandThumb2
									{
										OFFSET -3.016712 -1.561966 2.119022
										CHANNELS 3 Xrotation Yrotation Zrotation
										JOINT RightHandThumb3
										{
											OFFSET -3.029564 -2.099800 1.415844
											CHANNELS 3 Xrotation Yrotation Zrotation
											End Site
											{
												OFFSET 0.000000 3.948677 0.000000
											}
										}
									}
								}
								JOINT RightHandIndex1
								{
									OFFSET -11.372513 0.065018 3.699154
									CHANNELS 3 Xrotation Yrotation Zrotation
									JOINT RightHandIndex2
									{
										OFFSET -3.229187 -0.574921 -0.143498
										CHANNELS 3 Xrotation Yrotation Zrotation
										JOINT RightHandIndex3
										{
											OFFSET -3.111160 -1.135635 -0.280794
											CHANNELS 3 Xrotation Yrotation Zrotation
											End Site
											{
												OFFSET 0.000000 3.323822 0.000000
											}
										}
									}
								}
								JOINT RightHandMiddle1
								{
									OFFSET -11.327377 0.426697 -0.098180
									CHANNELS 3 Xrotation Yrotation Zrotation
									JOINT RightHandMiddle2
									{
										OFFSET -3.290932 -0.875465 -0.186927
										CHANNELS 3 Xrotation Yrotation Zrotation
										JOINT RightHandMiddle3
										{
											OFFSET -3.094551 -1.150223 -0.267588
											CHANNELS 3 Xrotation Yrotation Zrotation
											End Site
											{
												OFFSET 0.000000 3.312233 0.000000
											}
										}
									}
								}
								JOINT RightHandRing1
								{
									OFFSET -11.497078 -0.008904 -3.070051
									CHANNELS 3 Xrotation Yrotation Zrotation
									JOINT RightHandRing2
									{
										OFFSET -2.881340 -0.992859 -0.186928
										CHANNELS 3 Xrotation Yrotation Zrotation
										JOINT RightHandRing3
										{
											OFFSET -3.022743 -1.281013 -0.290960
											CHANNELS 3 Xrotation Yrotation Zrotation
											End Site
											{
												OFFSET 0.000000 3.295853 0.000000
											}
										}
									}
								}
								JOINT RightHandPinky1
								{
									OFFSET -10.529488 -1.373093 -5.625615
									CHANNELS 3 Xrotation Yrotation Zrotation
									JOINT RightHandPinky2
									{
										OFFSET -2.679024 -0.950073 -0.330554
										CHANNELS 3 Xrotation Yrotation Zrotation
										JOINT RightHandPinky3
										{
											OFFSET -2.724571 -0.843613 -0.252685
											CHANNELS 3 Xrotation Yrotation Zrotation
											End Site
											{
												OFFSET 0.000000 2.863358 0.000000
											}
										}
									}
								}
							}
							JOINT RSleeve
							{
								OFFSET -6.633202 -0.344879 -1.263650
								CHANNELS 3 Xrotation Yrotation Zrotation
								End Site
								{
									OFFSET 0.000000 14.885345 0.000000
								}
							}
						}
					}
				}
				JOINT Backpack
				{
					OFFSET -0.000000 -2.471489 36.677479
					CHANNELS 3 Xrotation Yrotation Zrotation
					End Site
					{
						OFFSET 0.000000 20.427322 0.000000
					}
				}
				JOINT Hood
				{
					OFFSET -0.000000 18.754143 -10.430963
					CHANNELS 3 Xrotation Yrotation Zrotation
					JOINT Hood1
					{
						OFFSET -0.000000 -5.011017 -7.685929
						CHANNELS 3 Xrotation Yrotation Zrotation
						End Site
						{
							OFFSET 0.000000 9.175171 0.000000
						}
					}
				}
				JOINT LHoodieString
				{
					OFFSET 5.250455 16.397728 3.089918
					CHANNELS 3 Xrotation Yrotation Zrotation
					JOINT LHoodieString1
					{
						OFFSET 0.257711 -6.364296 3.694587
						CHANNELS 3 Xrotation Yrotation Zrotation
						JOINT LHoodieString2
						{
							OFFSET 0.000000 -9.643806 2.679132
							CHANNELS 3 Xrotation Yrotation Zrotation
							End Site
							{
								OFFSET 0.000000 10.009033 0.000000
							}
						}
					}
				}
				JOINT RHoodieString
				{
					OFFSET -5.250455 16.397728 3.089918
					CHANNELS 3 Xrotation Yrotation Zrotation
					JOINT RHoodieString1
					{
						OFFSET -0.257711 -6.364296 3.694587
						CHANNELS 3 Xrotation Yrotation Zrotation
						JOINT RHoodieString2
						{
							OFFSET 0.000000 -9.643806 2.679132
							CHANNELS 3 Xrotation Yrotation Zrotation
							End Site
							{
								OFFSET 0.000000 10.009033 0.000000
							}
						}
					}
				}
			}
			JOINT LBackpack_Strap
			{
				OFFSET 15.223173 -7.719788 -6.610897
				CHANNELS 3 Xrotation Yrotation Zrotation
				End Site
				{
					OFFSET 0.000000 16.040596 0.000000
				}
			}
			JOINT RBackpack_Strap
			{
				OFFSET -15.223000 -7.719788 -6.610897
				CHANNELS 3 Xrotation Yrotation Zrotation
				End Site
				{
					OFFSET 0.000000 16.040596 0.000000
				}
			}
		}
	}
	JOINT BoyFacialAnim_Joint
	{
		OFFSET 1.000000 -82.208069 -1.550922
		CHANNELS 3 Xrotation Yrotation Zrotation
		End Site
		{
			OFFSET 0.000000 30.012787 0.000000
		}
	}
}
MOTION
Frames: 4
Frame Time: 0.016667
1.182175 81.021164 0.730391 -0.383592 -0.127627 -1.557049 -0.000000 -0.000000 0.000000 -8.792439 5.207776 0.411482 24.511073 -6.094810 -0.847144 -15.104519 -1.808071 4.409407 -0.000000 0.000000 -0.000000 -0.000000 0.000000 0.000000 -0.000001 -0.000000 -0.000000 -8.911169 -3.672125 1.819171 22.479350 5.463448 -0.497350 -12.963066 0.129889 -1.583281 -0.000000 0.000000 -0.000000 -0.000000 0.000000 -0.000000 0.000001 0.000000 -0.000000 -9.199357 1.288327 1.072763 7.246680 -0.041691 -1.878295 7.251812 0.041102 -1.863932 2.287006 -1.008078 3.029063 -5.069788 -2.335753 2.401236 -0.000000 -0.000000 0.000000 -0.000000 -0.000000 0.000000 -0.000000 -0.000000 0.000000 0.892943 -0.363511 -11.998578 11.475241 -38.678330 -57.805284 -0.000004 -17.266795 0.000005 -15.609890 0.809348 6.369778 -0.103820 29.418479 7.764847 -1.546193 7.410804 7.383063 -0.000000 0.000000 0.000001 -0.420830 -2.406579 -5.328485 -0.851588 -2.593024 -1.692521 0.000001 -0.000003 0.000001 -0.724103 -3.156967 -6.144990 -1.595810 -1.597376 -12.092109 -0.000001 0.000001 0.000001 -1.165074 -3.625698 -9.090697 -2.631574 -1.297322 -21.026263 -0.000001 0.000000 -0.000001 -0.571536 -3.170796 -15.016292 -3.969652 -1.847836 -32.668726 -0.000002 0.000002 0.000002 0.000003 -0.000000 -0.000001 1.709893 -7.765213 12.112732 20.308094 52.751361 54.702811 0.000010 25.095580 -0.000007 -36.866229 -2.793215 -9.396456 4.791140 -24.900944 -12.633734 -0.213735 -5.549387 -5.077395 -0.000000 0.000001 0.000004 -0.672965 2.451000 10.412902 -1.152550 2.586687 4.970207 0.000001 0.000000 -0.000000 -0.893453 3.153090 8.919147 -1.658176 1.569064 12.888814 -0.000001 -0.000000 -0.000002 -1.146370 3.591330 8.936349 -2.407955 1.341800 18.766023 0.000001 -0.000001 -0.000000 -2.529769 6.572979 12.267535 -2.191752 -1.870655 28.095553 -0.000001 0.000002 0.000002 0.000001 0.000001 -0.000002 0.000000 0.000000 0.000000 0.000000 0.000000 0.000000 0.000000 0.000000 0.000000 0.000000 0.000000 0.000000 0.000000 0.000000 0.000000 0.000000 0.000000 0.000000 0.000000 0.000000 0.000000 0.000000 0.000000 0.000000 0.000000 0.000000 0.000000 -0.000000 -0.000000 -0.000000 -0.000000 -0.000000 -0.000000 -0.000000 -0.000000 0.000000 
1.183034 81.031853 0.695887 -0.475050 -0.230251 -1.497612 0.000000 0.000000 0.000000 -8.618116 5.547272 0.303763 24.357969 -6.048456 -0.831948 -15.070416 -1.334623 4.466214 -0.000000 0.000000 0.000000 -0.000000 0.000000 0.000000 0.000001 -0.000000 -0.000000 -8.875744 -3.331889 1.781133 22.483970 5.191667 -0.439857 -12.932274 0.187808 -1.545103 -0.000000 0.000000 -0.000000 -0.000000 0.000000 0.000000 -0.000000 0.000000 -0.000000 -9.014693 1.210165 1.108068 7.243669 -0.054628 -1.914696 7.249077 0.027204 -1.900875 2.289487 -0.980009 2.997443 -5.155913 -2.237615 2.396680 -0.000000 0.000000 -0.000000 -0.000000 0.000000 -0.000000 -0.000000 0.000000 -0.000000 0.896146 -0.370154 -11.998573 11.394869 -38.956465 -57.845138 -0.000011 -16.650929 -0.000002 -17.381496 0.933130 6.340312 -0.061288 29.452250 7.751027 -1.541078 7.413417 7.373158 -0.000000 0.000000 -0.000001 -0.464961 -2.420454 -6.212985 -0.852738 -2.593087 -1.704804 0.000000 0.000002 -0.000000 -0.777176 -3.160251 -7.025432 -1.596467 -1.597301 -12.099395 0.000001 0.000000 -0.000000 -1.220446 -3.615667 -9.965705 -2.631668 -1.297288 -21.027277 0.000001 0.000001 0.000001 -0.614375 -3.164900 -15.885748 -3.969327 -1.847986 -32.665093 0.000001 -0.000001 -0.000001 -0.000000 0.000002 -0.000000 1.710735 -7.768554 12.112828 19.732541 52.718429 55.060306 -0.000008 24.802845 0.000012 -36.377424 -2.749718 -9.402151 4.813814 -24.933493 -12.628367 -0.213734 -5.549388 -5.077395 -0.000001 0.000001 0.000001 -0.673687 2.451153 10.426984 -1.153927 2.586686 4.985089 -0.000000 -0.000001 0.000000 -0.892061 3.148610 8.928802 -1.659073 1.568935 12.898958 -0.000000 -0.000001 0.000001 -1.141432 3.581464 8.940449 -2.408353 1.341677 18.770309 -0.000000 0.000000 0.000002 -2.520877 6.558763 12.266379 -2.191743 -1.870656 28.095452 -0.000001 0.000001 0.000000 0.000000 0.000002 -0.000001 0.000000 0.000000 -0.000000 0.000000 0.000000 -0.000000 0.000000 0.000000 -0.000000 0.000000 0.000000 -0.000000 0.000000 0.000000 -0.000000 0.000000 0.000000 -0.000000 0.000000 0.000000 -0.000000 0.000000 0.000000 -0.000000 0.000000 0.000000 -0.000000 0.000000 0.000000 0.000000 0.000000 0.000000 0.000000 0.000000 0.000000 0.000000 
1.179996 81.039322 0.658877 -0.586863 -0.261489 -1.489619 -0.000000 -0.000000 -0.000000 -8.485229 5.802131 0.274621 24.295697 -6.058239 -0.819825 -15.056563 -1.011619 4.510528 0.000000 -0.000000 -0.000000 0.000000 -0.000000 -0.000000 -0.000000 -0.000000 -0.000001 -8.788493 -2.951324 1.805021 22.448202 4.847256 -0.360379 -12.893046 0.212029 -1.512292 0.000000 -0.000000 0.000000 0.000000 -0.000000 0.000000 -0.000000 0.000000 0.000000 -8.657018 1.118434 1.148304 7.158618 -0.064565 -1.933345 7.164082 0.014678 -1.920351 2.298060 -0.960203 2.970376 -5.268167 -2.191121 2.429276 -0.000000 -0.000000 -0.000000 -0.000000 -0.000000 -0.000000 -0.000000 -0.000000 -0.000000 0.900167 -0.376596 -11.998558 11.117793 -38.868896 -57.969865 -0.000001 -16.293819 -0.000007 -19.360228 1.129969 6.195356 -0.028162 29.478530 7.740275 -1.537032 7.415468 7.365275 0.000001 0.000000 0.000000 -0.466694 -2.420993 -6.247563 -0.853603 -2.593144 -1.714139 0.000000 -0.000000 -0.000000 -0.771633 -3.143414 -7.046278 -1.595969 -1.597342 -12.093921 -0.000000 -0.000002 0.000002 -1.200690 -3.579498 -9.969097 -2.629470 -1.298037 -21.003428 0.000002 0.000000 -0.000001 -0.577975 -3.114179 -15.874196 -3.965964 -1.849494 -32.627547 -0.000000 -0.000001 -0.000004 -0.000004 0.000001 -0.000001 1.711239 -7.754986 12.112426 19.421768 52.680494 55.235070 0.000003 24.686534 -0.000011 -36.049001 -2.703097 -9.398894 4.830938 -24.958104 -12.624349 -0.213732 -5.549387 -5.077394 -0.000002 -0.000000 -0.000001 -0.674216 2.451254 10.437492 -1.154977 2.586675 4.996382 0.000001 -0.000002 0.000000 -0.885999 3.135198 8.926340 -1.658860 1.568963 12.896428 -0.000001 -0.000002 -0.000002 -1.124718 3.552306 8.921678 -2.406508 1.342254 18.750445 -0.000001 0.000000 0.000003 -2.490881 6.517461 12.231845 -2.188733 -1.869557 28.062905 0.000001 -0.000000 -0.000000 0.000002 0.000000 0.000000 0.000000 0.000000 0.000000 0.000000 0.000000 0.000000 0.000000 0.000000 0.000000 0.000000 0.000000 0.000000 0.000000 0.000000 -0.000000 0.000000 0.000000 -0.000000 0.000000 0.000000 0.000000 0.000000 0.000000 0.000000 0.000000 0.000000 0.000000 -0.000000 0.000000 0.000000 -0.000000 0.000000 0.000000 -0.000000 -0.000000 -0.000000 
1.175001 81.045525 0.617227 -0.710004 -0.246503 -1.513023 0.000000 -0.000000 0.000000 -8.381359 5.966100 0.286503 24.287074 -6.050791 -0.810146 -15.051346 -0.793897 4.535378 -0.000000 0.000000 0.000000 0.000000 0.000000 0.000000 0.000000 0.000000 -0.000000 -8.672190 -2.552880 1.863840 22.383939 4.462899 -0.264704 -12.843351 0.217939 -1.484861 0.000000 0.000000 0.000000 0.000000 0.000000 0.000000 -0.000000 0.000000 0.000000 -8.173624 1.022963 1.199866 7.011703 -0.071746 -1.944896 7.017103 0.003845 -1.932846 2.313502 -0.946553 2.947247 -5.389747 -2.180464 2.484540 0.000000 -0.000000 0.000000 0.000000 -0.000000 0.000000 0.000000 -0.000000 0.000000 0.904811 -0.378311 -11.998551 10.715193 -38.554864 -58.135640 -0.000002 -16.115766 0.000016 -21.534564 1.384092 5.993400 -0.001304 29.499799 7.731492 -1.533686 7.417192 7.358821 -0.000001 0.000000 -0.000001 -0.468081 -2.421420 -6.275347 -0.854298 -2.593179 -1.721536 -0.000001 -0.000001 0.000000 -0.760762 -3.115626 -7.051621 -1.594484 -1.597531 -12.077240 -0.000001 0.000002 0.000000 -1.166444 -3.520330 -9.946003 -2.625130 -1.299514 -20.956593 -0.000000 -0.000001 0.000000 -0.516842 -3.030875 -15.826742 -3.959741 -1.852242 -32.558306 0.000001 0.000000 -0.000002 0.000003 -0.000001 0.000002 1.711479 -7.731765 12.111749 19.303831 52.639578 55.273384 -0.000008 24.699661 -0.000004 -35.789594 -2.664215 -9.371884 4.844346 -24.977297 -12.621137 -0.213732 -5.549387 -5.077394 -0.000002 -0.000000 0.000000 -0.674628 2.451353 10.445641 -1.155810 2.586667 5.005316 -0.000001 0.000001 0.000001 -0.875538 3.113207 8.913291 -1.657633 1.569139 12.882677 0.000000 -0.000000 -0.000001 -1.096795 3.504584 8.881897 -2.402606 1.343465 18.708458 0.000000 -0.000001 -0.000000 -2.440856 6.450078 12.166368 -2.182945 -1.867460 28.000220 -0.000000 0.000000 0.000000 0.000002 -0.000000 0.000001 0.000000 0.000000 -0.000000 0.000000 0.000000 -0.000000 0.000000 0.000000 -0.000000 0.000000 0.000000 -0.000000 0.000000 0.000000 -0.000000 0.000000 0.000000 -0.000000 0.000000 0.000000 -0.000000 0.000000 0.000000 -0.000000 0.000000 0.000000 -0.000000 0.000000 -0.000000 0.000000 0.000000 -0.000000 0.000000 0.000000 -0.000000 0.000000 
